<svg xmlns="http://www.w3.org/2000/svg" viewBox="0 0 58 58" width="800" height="800"><style>tspan { white-space:pre }.shp0 { fill: #7fabda } .shp1 { fill: #23a24d } </style><g ><path class="shp0" d="M27.5,48h12c0.55,0 1,-0.45 1,-1c0,-0.55 -0.45,-1 -1,-1h-12c-0.55,0 -1,0.45 -1,1c0,0.55 0.45,1 1,1z" /><path class="shp0" d="M39.5,52h-12c-0.55,0 -1,0.45 -1,1c0,0.55 0.45,1 1,1h12c0.55,0 1,-0.45 1,-1c0,-0.55 -0.45,-1 -1,-1z" /><path class="shp0" d="M27.5,41h17c0.55,0 1,-0.45 1,-1c0,-0.55 -0.45,-1 -1,-1h-17c-0.55,0 -1,0.45 -1,1c0,0.55 0.45,1 1,1z" /><path class="shp0" d="M27.5,34h22c0.55,0 1,-0.45 1,-1c0,-0.55 -0.45,-1 -1,-1h-22c-0.55,0 -1,0.45 -1,1c0,0.55 0.45,1 1,1z" /><path class="shp0" d="M27.5,27l26,0c0.55,0 1,-0.45 1,-1c0,-0.55 -0.45,-1 -1,-1h-26c-0.55,0 -1,0.45 -1,1c0,0.55 0.45,1 1,1z" /><path class="shp0" d="M27.5,20h20c0.55,0 1,-0.45 1,-1c0,-0.55 -0.45,-1 -1,-1h-20c-0.55,0 -1,0.45 -1,1c0,0.55 0.45,1 1,1z" /><path class="shp0" d="M27.5,13h14c0.55,0 1,-0.45 1,-1c0,-0.55 -0.45,-1 -1,-1h-14c-0.55,0 -1,0.45 -1,1c0,0.55 0.45,1 1,1z" /><path class="shp0" d="M27.5,6h14c0.55,0 1,-0.45 1,-1c0,-0.55 -0.45,-1 -1,-1h-14c-0.55,0 -1,0.45 -1,1c0,0.55 0.45,1 1,1z" /></g><path class="shp1" d="M5.5,58l24,0v-4h-24c-1.1,0 -2,0.9 -2,2c0,1.1 0.9,2 2,2z" /><path class="shp1" d="M5.5,4l24,0v-4l-24,0c-1.11,0 -2,0.9 -2,2c0,1.1 0.89,2 2,2z" /><path class="shp0" d="M21.13,30.18c-5.91,3.47 -9.63,9.84 -9.63,16.82v7h18l0,-50l-18,0v7c0,6.98 3.72,13.35 9.63,16.82c0.9,0.53 0.9,1.84 0,2.37z" /><g ></g><g ></g><g ></g><g ></g><g ></g><g ></g><g ></g><g ></g><g ></g><g ></g><g ></g><g ></g><g ></g><g ></g><g ></g></svg>